<?xml version="1.0" encoding="utf-8"?>
<!-- Generator: Adobe Illustrator 16.0.3, SVG Export Plug-In . SVG Version: 6.00 Build 0)  -->
<!DOCTYPE svg PUBLIC "-//W3C//DTD SVG 1.1//EN" "http://www.w3.org/Graphics/SVG/1.1/DTD/svg11.dtd">
<svg version="1.1" id="Capa_1" xmlns="http://www.w3.org/2000/svg" xmlns:xlink="http://www.w3.org/1999/xlink" x="0px" y="0px"
	 width="250px" height="150px" viewBox="0 0 250 150" enable-background="new 0 0 250 150" xml:space="preserve">
<text transform="matrix(1.2384 0 0 1.1 98.7871 85.6289)" fill="#333333" font-family="'LucidaBright-Demi'" font-size="26.0252">Ivakit</text>
<text transform="matrix(1.2384 0 0 1.1 102.7871 280.1133)" fill="#FFFFFF" font-family="'LucidaBright-Demi'" font-size="26.0252">Ivakit</text>
<g>
	
		<linearGradient id="SVGID_1_" gradientUnits="userSpaceOnUse" x1="902.7021" y1="-782.3779" x2="909.6729" y2="-782.3779" gradientTransform="matrix(0.3314 0.0032 0.0032 -0.3314 -242.9088 -174.8615)">
		<stop  offset="0" style="stop-color:#FCA221"/>
		<stop  offset="0.2433" style="stop-color:#F9A021"/>
		<stop  offset="0.3962" style="stop-color:#F19822"/>
		<stop  offset="0.5241" style="stop-color:#E28A23"/>
		<stop  offset="0.6383" style="stop-color:#CD7824"/>
		<stop  offset="0.7433" style="stop-color:#B35F26"/>
		<stop  offset="0.8416" style="stop-color:#924128"/>
		<stop  offset="0.9329" style="stop-color:#6B1E2B"/>
		<stop  offset="1" style="stop-color:#4A002D"/>
	</linearGradient>
	<path fill="url(#SVGID_1_)" d="M55.167,86.382c0.208,0.691,0.506,1.34,0.889,1.938c-0.772-0.072-1.625-0.143-2.309-0.199
		L55.167,86.382z"/>
	
		<linearGradient id="SVGID_2_" gradientUnits="userSpaceOnUse" x1="935.4395" y1="-713.4756" x2="960.585" y2="-713.4756" gradientTransform="matrix(0.3314 0.0032 0.0032 -0.3314 -242.9088 -174.8615)">
		<stop  offset="0" style="stop-color:#CD181F"/>
		<stop  offset="0.1746" style="stop-color:#C2171D"/>
		<stop  offset="0.4791" style="stop-color:#A61319"/>
		<stop  offset="0.875" style="stop-color:#770E12"/>
		<stop  offset="1" style="stop-color:#670C10"/>
	</linearGradient>
	<path fill="url(#SVGID_2_)" d="M71.823,71.265c1.21,2.076,1.529,4.074,0.958,5.973c-0.211-1.938-0.979-3.811-2.287-5.35
		l-3.623-4.25c-1.415-1.666-2.127-3.811-2.007-6.043c0.121-2.231,1.061-4.277,2.646-5.761c1.141-1.066,2.406-2.318,3.721-3.73
		c0.081,1.621-0.285,3.617-1.872,5.563c-0.971,1.191-1.528,2.691-1.568,4.226C67.749,63.554,68.3,65.226,71.823,71.265z"/>
	
		<linearGradient id="SVGID_3_" gradientUnits="userSpaceOnUse" x1="916.3838" y1="-772.8115" x2="926.5977" y2="-772.8115" gradientTransform="matrix(0.3314 0.0032 0.0032 -0.3314 -242.9088 -174.8615)">
		<stop  offset="0" style="stop-color:#06AAC1"/>
		<stop  offset="0.2669" style="stop-color:#06A7BE"/>
		<stop  offset="0.5009" style="stop-color:#089EB3"/>
		<stop  offset="0.7216" style="stop-color:#0A8EA1"/>
		<stop  offset="0.9344" style="stop-color:#0E7988"/>
		<stop  offset="0.9405" style="stop-color:#0E7887"/>
	</linearGradient>
	<path fill="url(#SVGID_3_)" d="M58.323,83.983c0.027-0.568,0.246-1.117,0.635-1.514c0.083-0.08,0.163-0.156,0.251-0.227l0.39,0.314
		c-0.111,0.074-0.215,0.162-0.313,0.266c-0.279,0.287-0.32,0.775-0.039,1.059c0.27,0.273,0.698,0.26,0.953-0.029
		c0.196-0.229,0.567-0.359,1.008-0.043c0.35,0.252,0.536,0.666,0.482,1.082c-0.095,0.75-0.713,1.313-1.434,1.305
		c-1.077-0.01-1.947-0.943-1.936-2.082C58.321,84.077,58.322,84.03,58.323,83.983z"/>
	
		<linearGradient id="SVGID_4_" gradientUnits="userSpaceOnUse" x1="910.1592" y1="-717.0396" x2="1066.6035" y2="-717.0396" gradientTransform="matrix(0.3314 0.0032 0.0032 -0.3314 -242.9088 -174.8615)">
		<stop  offset="0" style="stop-color:#06AAC1"/>
		<stop  offset="0.2586" style="stop-color:#058293"/>
		<stop  offset="0.8425" style="stop-color:#011C20"/>
		<stop  offset="1" style="stop-color:#000000"/>
	</linearGradient>
	<path fill="url(#SVGID_4_)" d="M108.362,58.278l-9.432,4.858c-5.355,2.76-9.82,7.058-12.913,12.429
		c-1.323,2.3-2.479,4.156-3.631,5.84l-0.22,0.322c-3.655,5.346-9.133,8.633-14.652,8.785c-4.057,0.117-6.511-0.143-7.96-0.842
		c-1.771-0.848-2.994-2.578-3.307-4.553l0.748-0.73c0.122,1.781,1.525,3.199,3.248,3.215c1.394,0.016,2.585-1.074,2.771-2.529
		c0.122-0.945-0.283-1.877-1.056-2.43c-0.757-0.547-1.667-0.563-2.359-0.086l-0.39-0.314c0.841-0.705,1.939-0.941,2.986-0.625
		c1.129,0.34,1.992,1.26,2.304,2.455l0.28,1.072c0.048,0.189,0.167,0.348,0.331,0.438c0.018,0.008,0.184,0.102,0.458,0.209
		c2.075,0.803,4.397,0,5.654-1.959l0.044-0.07c0.658-1.025,1.104-2.143,1.35-3.295c2.245-3.044,2.366-6.478,0.346-9.942
		c-3.323-5.696-3.868-7.256-3.835-8.597c0.033-1.209,0.475-2.396,1.245-3.344c2.295-2.817,2.416-5.733,2.056-7.794
		c2.422-2.738,4.921-5.984,7.031-9.616c-0.293,7.453-1.444,13.157-2.615,18.383c-0.921,4.11,0.584,6.199,2.328,8.618
		c0.4,0.552,0.814,1.129,1.23,1.763c2.739,4.195,1.726,9.981-2.259,12.907c-0.301,0.223-0.377,0.66-0.166,0.98
		c0.21,0.32,0.624,0.398,0.929,0.174c4.587-3.363,5.75-10.031,2.596-14.86c-0.433-0.665-0.857-1.25-1.268-1.82
		c-0.214-0.298-0.419-0.58-0.611-0.858c5.779-5.204,8.052-12.56,10.572-21.779c-0.247,5.583-1.496,10.792-2.071,12.943
		c-0.163,0.614-0.371,1.212-0.614,1.797l-0.855,2.039c-0.147,0.35-0.026,0.777,0.298,0.948c0.095,0.048,0.192,0.072,0.29,0.073
		c0.259,0.002,0.508-0.155,0.619-0.419l0.784-1.871c0.237,0.286,0.521,0.618,0.83,0.959l-2.384,2.84
		c-0.246,0.291-0.22,0.737,0.057,0.994c0.125,0.118,0.279,0.175,0.435,0.177c0.188,0.001,0.373-0.08,0.508-0.237l2.329-2.777
		c0.283,0.282,0.567,0.547,0.841,0.771l-1.465,1.101c-0.282,0.215-0.388,0.624-0.215,0.939c0.124,0.231,0.346,0.355,0.574,0.358
		c0.137,0.001,0.273-0.041,0.393-0.133l1.505-1.128c0.518-0.391,1.061-0.742,1.628-1.046
		C100.599,59.312,105.589,58.424,108.362,58.278z"/>
	
		<linearGradient id="SVGID_5_" gradientUnits="userSpaceOnUse" x1="910.0566" y1="-759.8618" x2="955.9902" y2="-759.8618" gradientTransform="matrix(0.3314 0.0032 0.0032 -0.3314 -242.9088 -174.8615)">
		<stop  offset="0" style="stop-color:#CD181F"/>
		<stop  offset="0.1746" style="stop-color:#C2171D"/>
		<stop  offset="0.4791" style="stop-color:#A61319"/>
		<stop  offset="0.875" style="stop-color:#770E12"/>
		<stop  offset="1" style="stop-color:#670C10"/>
	</linearGradient>
	<path fill="url(#SVGID_5_)" d="M70.967,75.341c0.917,2.471,0.667,5.326-0.808,7.634l-0.046,0.07
		c-0.908,1.422-2.587,2.008-4.082,1.426c-0.017-0.012-0.034-0.012-0.048-0.02l-0.171-0.654c-0.429-1.648-1.598-2.998-3.146-3.5
		c-1.613-0.528-3.33-0.117-4.564,1.096l-1.87,1.822c0.398-2.813,2.637-5.007,5.36-5.179c2.426-0.154,4.702,1.322,5.661,3.669
		c0.146,0.357,0.539,0.523,0.878,0.367c0.339-0.152,0.494-0.566,0.35-0.924c-0.418-1.021-1.041-1.911-1.8-2.624
		C67.786,77.908,69.597,76.777,70.967,75.341z"/>
	
		<linearGradient id="SVGID_6_" gradientUnits="userSpaceOnUse" x1="857.8838" y1="-730.8442" x2="952.3311" y2="-730.8442" gradientTransform="matrix(0.3314 0.0032 0.0032 -0.3314 -242.9088 -174.8615)">
		<stop  offset="0" style="stop-color:#06AAC1"/>
		<stop  offset="0.2586" style="stop-color:#058293"/>
		<stop  offset="0.8425" style="stop-color:#011C20"/>
		<stop  offset="1" style="stop-color:#000000"/>
	</linearGradient>
	<path fill="url(#SVGID_6_)" d="M69.499,72.831c0.317,0.37,0.592,0.765,0.834,1.177c-1.52,1.764-4.011,3.149-4.873,3.594
		c-1.173-0.703-2.539-1.059-3.947-0.969c-2.575,0.16-4.798,1.789-5.914,4.108c-2.87-0.203-5.454-2.063-6.66-4.833
		c-1.973-4.54-5.197-10.812-9.772-16.269c5.68,2.231,9.697,5.031,13.295,7.539c0.655,0.457,1.273,0.887,1.896,1.312
		c0.165,0.111,0.356,0.248,0.569,0.4c2.343,1.678,7.724,5.523,12.5,1.511L69.499,72.831z"/>
	<path d="M111.698,57.6c0.032,0.299-0.115,0.586-0.372,0.719l-11.812,6.083c-5.558,2.863-9.681,7.245-12.356,11.891
		c-1.342,2.336-2.515,4.222-3.69,5.937l-0.221,0.322c-3.897,5.697-9.766,9.203-15.699,9.371c-0.812,0.02-1.564,0.031-2.258,0.025
		c-2.998-0.029-4.937-0.346-6.289-0.996c-0.602-0.287-1.151-0.656-1.64-1.096c-1.453-0.152-4.994-0.438-5.031-0.441
		c-0.309-0.021-0.572-0.271-0.614-0.617c-0.024-0.201,0.048-0.406,0.174-0.563l2.959-3.617c-0.024-0.363-0.023-0.73,0.004-1.098
		c0.037-0.482,0.119-0.959,0.239-1.414c-3.187-0.379-6.017-2.505-7.367-5.612c-2.184-5.023-5.93-12.216-11.363-17.943
		c-0.218-0.229-0.257-0.586-0.098-0.863c0.159-0.278,0.479-0.406,0.773-0.307c7.238,2.401,11.978,5.704,16.161,8.623
		c0.652,0.453,1.268,0.882,1.885,1.303c0.172,0.115,0.371,0.259,0.593,0.418c2.256,1.611,6.849,4.894,10.857,1.625l-0.656-0.771
		c-1.655-1.944-2.489-4.452-2.349-7.063c0.142-2.608,1.242-5,3.095-6.734c3.923-3.669,9.36-9.546,12.98-16.708
		c0.167-0.331,0.558-0.474,0.891-0.296c0.233,0.125,0.368,0.391,0.366,0.666c-0.09,8.976-1.394,15.51-2.721,21.438
		c-0.541,2.412-0.15,3.914,0.721,5.412c5.776-5.273,7.893-13.052,10.554-22.855c0.241-0.886,0.484-1.788,0.738-2.708
		c0.09-0.327,0.388-0.538,0.709-0.504c0.319,0.033,0.571,0.303,0.597,0.641c0.652,8.225-1.697,16.943-2.251,18.86
		c0.926,1.161,2.381,2.803,3.243,3.365c11.898-6.539,18.45-5.157,18.724-5.095C111.454,57.062,111.664,57.303,111.698,57.6z
		 M98.93,63.136l9.432-4.858c-2.773,0.146-7.763,1.034-14.685,4.733c-0.567,0.304-1.111,0.655-1.628,1.046l-1.505,1.128
		c-0.12,0.092-0.256,0.134-0.393,0.133c-0.228-0.002-0.45-0.127-0.574-0.358c-0.173-0.315-0.066-0.724,0.215-0.939l1.465-1.101
		c-0.274-0.224-0.558-0.489-0.841-0.771l-2.329,2.777c-0.135,0.158-0.32,0.239-0.508,0.237c-0.156-0.001-0.31-0.059-0.435-0.177
		c-0.276-0.256-0.303-0.703-0.057-0.994l2.384-2.84c-0.308-0.341-0.593-0.673-0.83-0.959l-0.784,1.871
		c-0.11,0.264-0.359,0.421-0.619,0.419c-0.097-0.001-0.195-0.025-0.29-0.073c-0.325-0.17-0.446-0.598-0.298-0.948l0.855-2.039
		c0.243-0.585,0.451-1.184,0.614-1.797c0.575-2.15,1.824-7.36,2.071-12.943c-2.521,9.22-4.793,16.576-10.572,21.779
		c0.192,0.278,0.397,0.56,0.611,0.858c0.411,0.57,0.835,1.156,1.268,1.82c3.154,4.83,1.991,11.497-2.596,14.86
		c-0.305,0.225-0.719,0.146-0.929-0.174c-0.211-0.32-0.135-0.758,0.166-0.98c3.985-2.926,4.999-8.712,2.259-12.907
		c-0.416-0.634-0.83-1.211-1.23-1.763c-1.744-2.418-3.249-4.508-2.328-8.618c1.17-5.226,2.322-10.931,2.615-18.383
		c-2.11,3.632-4.609,6.877-7.031,9.616c0.36,2.061,0.24,4.978-2.056,7.794c-0.77,0.947-1.212,2.134-1.245,3.344
		c-0.033,1.34,0.512,2.9,3.835,8.597c2.021,3.464,1.899,6.898-0.346,9.942c-0.245,1.152-0.691,2.27-1.35,3.295l-0.044,0.07
		c-1.257,1.959-3.579,2.762-5.654,1.959c-0.274-0.107-0.44-0.201-0.458-0.209c-0.163-0.09-0.283-0.248-0.331-0.438l-0.28-1.072
		c-0.312-1.195-1.174-2.115-2.304-2.455c-1.046-0.316-2.145-0.08-2.986,0.625c-0.088,0.07-0.168,0.146-0.251,0.227
		c-0.39,0.396-0.608,0.945-0.635,1.514c-0.001,0.047-0.002,0.094-0.002,0.131c-0.011,1.139,0.859,2.072,1.936,2.082
		c0.721,0.008,1.339-0.555,1.434-1.305c0.053-0.416-0.132-0.83-0.482-1.082c-0.441-0.316-0.812-0.186-1.008,0.043
		c-0.254,0.289-0.683,0.303-0.953,0.029c-0.281-0.283-0.24-0.771,0.039-1.059c0.098-0.104,0.201-0.191,0.313-0.266
		c0.692-0.477,1.603-0.461,2.359,0.086c0.772,0.553,1.177,1.484,1.056,2.43c-0.186,1.455-1.377,2.545-2.771,2.529
		c-1.722-0.016-3.125-1.434-3.248-3.215l-0.748,0.73c0.313,1.975,1.535,3.705,3.307,4.553c1.449,0.699,3.903,0.959,7.96,0.842
		c5.519-0.152,10.997-3.439,14.652-8.785l0.22-0.322c1.152-1.685,2.308-3.54,3.631-5.84C89.11,70.194,93.575,65.896,98.93,63.136z
		 M72.78,77.238c0.572-1.899,0.252-3.897-0.958-5.973c-3.523-6.04-4.074-7.711-4.032-9.372c0.041-1.535,0.597-3.034,1.568-4.226
		c1.587-1.946,1.953-3.942,1.872-5.563c-1.315,1.413-2.581,2.665-3.721,3.73c-1.585,1.484-2.525,3.53-2.646,5.761
		c-0.121,2.232,0.592,4.377,2.007,6.043l3.623,4.25C71.801,73.427,72.569,75.3,72.78,77.238z M70.159,82.976
		c1.475-2.309,1.725-5.163,0.808-7.634c-1.37,1.436-3.182,2.567-4.286,3.184c0.759,0.713,1.382,1.603,1.8,2.624
		c0.145,0.357-0.011,0.771-0.35,0.924c-0.339,0.156-0.731-0.01-0.878-0.367c-0.959-2.347-3.235-3.823-5.661-3.669
		c-2.724,0.172-4.962,2.366-5.36,5.179l1.87-1.822c1.234-1.213,2.951-1.624,4.564-1.096c1.547,0.502,2.717,1.852,3.146,3.5
		l0.171,0.654c0.015,0.008,0.032,0.008,0.048,0.02c1.495,0.582,3.174-0.004,4.082-1.426L70.159,82.976z M70.333,74.007
		c-0.242-0.412-0.518-0.807-0.834-1.177l-2.07-2.43c-4.776,4.012-10.158,0.167-12.5-1.511c-0.213-0.153-0.405-0.29-0.569-0.4
		c-0.623-0.425-1.241-0.854-1.896-1.312c-3.598-2.508-7.615-5.308-13.295-7.539c4.575,5.457,7.8,11.729,9.772,16.269
		c1.206,2.77,3.79,4.63,6.66,4.833c1.116-2.319,3.339-3.948,5.914-4.11c1.408-0.088,2.774,0.268,3.947,0.971
		C66.323,77.156,68.814,75.771,70.333,74.007z M56.056,88.319c-0.383-0.598-0.681-1.246-0.889-1.938l-1.419,1.738
		C54.431,88.177,55.283,88.247,56.056,88.319z"/>
</g>
<g>
	
		<linearGradient id="SVGID_7_" gradientUnits="userSpaceOnUse" x1="908.2344" y1="-1353.7305" x2="915.2061" y2="-1353.7305" gradientTransform="matrix(0.3314 0.0032 0.0032 -0.3314 -242.9088 -174.8615)">
		<stop  offset="0" style="stop-color:#FCA221"/>
		<stop  offset="0.2433" style="stop-color:#F9A021"/>
		<stop  offset="0.3962" style="stop-color:#F19822"/>
		<stop  offset="0.5241" style="stop-color:#E28A23"/>
		<stop  offset="0.6383" style="stop-color:#CD7824"/>
		<stop  offset="0.7433" style="stop-color:#B35F26"/>
		<stop  offset="0.8416" style="stop-color:#924128"/>
		<stop  offset="0.9329" style="stop-color:#6B1E2B"/>
		<stop  offset="1" style="stop-color:#4A002D"/>
	</linearGradient>
	<path fill="url(#SVGID_7_)" d="M55.167,275.758c0.208,0.691,0.506,1.34,0.889,1.938c-0.772-0.072-1.625-0.143-2.309-0.199
		L55.167,275.758z"/>
	
		<linearGradient id="SVGID_8_" gradientUnits="userSpaceOnUse" x1="940.9727" y1="-1284.8271" x2="966.1172" y2="-1284.8271" gradientTransform="matrix(0.3314 0.0032 0.0032 -0.3314 -242.9088 -174.8615)">
		<stop  offset="0" style="stop-color:#CD181F"/>
		<stop  offset="0.1746" style="stop-color:#C2171D"/>
		<stop  offset="0.4791" style="stop-color:#A61319"/>
		<stop  offset="0.875" style="stop-color:#770E12"/>
		<stop  offset="1" style="stop-color:#670C10"/>
	</linearGradient>
	<path fill="url(#SVGID_8_)" d="M71.823,260.641c1.21,2.076,1.529,4.074,0.958,5.974c-0.211-1.938-0.979-3.812-2.287-5.35
		l-3.623-4.25c-1.415-1.665-2.127-3.812-2.007-6.043s1.061-4.276,2.646-5.761c1.141-1.066,2.406-2.318,3.721-3.73
		c0.081,1.621-0.285,3.617-1.872,5.563c-0.971,1.191-1.528,2.691-1.568,4.227C67.749,252.93,68.3,254.602,71.823,260.641z"/>
	
		<linearGradient id="SVGID_9_" gradientUnits="userSpaceOnUse" x1="921.917" y1="-1344.1641" x2="932.1309" y2="-1344.1641" gradientTransform="matrix(0.3314 0.0032 0.0032 -0.3314 -242.9088 -174.8615)">
		<stop  offset="0" style="stop-color:#06AAC1"/>
		<stop  offset="0.2669" style="stop-color:#06A7BE"/>
		<stop  offset="0.5009" style="stop-color:#089EB3"/>
		<stop  offset="0.7216" style="stop-color:#0A8EA1"/>
		<stop  offset="0.9344" style="stop-color:#0E7988"/>
		<stop  offset="0.9405" style="stop-color:#0E7887"/>
	</linearGradient>
	<path fill="url(#SVGID_9_)" d="M58.323,273.359c0.027-0.568,0.246-1.117,0.635-1.514c0.083-0.08,0.163-0.156,0.251-0.227
		l0.39,0.314c-0.111,0.074-0.215,0.162-0.313,0.266c-0.279,0.287-0.32,0.775-0.039,1.059c0.27,0.273,0.698,0.26,0.953-0.029
		c0.196-0.229,0.567-0.359,1.008-0.043c0.35,0.252,0.536,0.666,0.482,1.082c-0.095,0.75-0.713,1.313-1.434,1.305
		c-1.077-0.01-1.947-0.943-1.936-2.082C58.321,273.453,58.322,273.406,58.323,273.359z"/>
	
		<linearGradient id="SVGID_10_" gradientUnits="userSpaceOnUse" x1="915.6924" y1="-1288.3906" x2="1072.1367" y2="-1288.3906" gradientTransform="matrix(0.3314 0.0032 0.0032 -0.3314 -242.9088 -174.8615)">
		<stop  offset="0" style="stop-color:#06AAC1"/>
		<stop  offset="0.2586" style="stop-color:#058293"/>
		<stop  offset="0.8425" style="stop-color:#011C20"/>
		<stop  offset="1" style="stop-color:#000000"/>
	</linearGradient>
	<path fill="url(#SVGID_10_)" d="M108.362,247.654l-9.432,4.857c-5.355,2.761-9.82,7.059-12.913,12.43
		c-1.323,2.3-2.479,4.155-3.631,5.84l-0.22,0.322c-3.655,5.346-9.133,8.633-14.652,8.785c-4.057,0.117-6.511-0.143-7.96-0.842
		c-1.771-0.848-2.994-2.578-3.307-4.553l0.748-0.73c0.122,1.781,1.525,3.199,3.248,3.215c1.394,0.016,2.585-1.074,2.771-2.529
		c0.122-0.945-0.283-1.877-1.056-2.43c-0.757-0.547-1.667-0.563-2.359-0.086l-0.39-0.314c0.841-0.705,1.939-0.941,2.986-0.625
		c1.129,0.34,1.992,1.26,2.304,2.455l0.28,1.072c0.048,0.189,0.167,0.348,0.331,0.438c0.018,0.008,0.184,0.102,0.458,0.209
		c2.075,0.803,4.397,0,5.654-1.959l0.044-0.07c0.658-1.025,1.104-2.143,1.35-3.295c2.245-3.044,2.366-6.479,0.346-9.941
		c-3.323-5.697-3.868-7.257-3.835-8.598c0.033-1.209,0.475-2.396,1.245-3.344c2.295-2.816,2.416-5.732,2.056-7.794
		c2.422-2.738,4.921-5.983,7.031-9.616c-0.293,7.453-1.444,13.158-2.615,18.384c-0.921,4.11,0.584,6.199,2.328,8.618
		c0.4,0.552,0.814,1.129,1.23,1.763c2.739,4.194,1.726,9.981-2.259,12.907c-0.301,0.223-0.377,0.66-0.166,0.98
		c0.21,0.32,0.624,0.398,0.929,0.174c4.587-3.363,5.75-10.031,2.596-14.86c-0.433-0.665-0.857-1.251-1.268-1.82
		c-0.214-0.298-0.419-0.579-0.611-0.858c5.779-5.203,8.052-12.559,10.572-21.779c-0.247,5.584-1.496,10.793-2.071,12.943
		c-0.163,0.613-0.371,1.213-0.614,1.797l-0.855,2.039c-0.147,0.35-0.026,0.777,0.298,0.947c0.095,0.049,0.192,0.072,0.29,0.074
		c0.259,0.002,0.508-0.156,0.619-0.42l0.784-1.87c0.237,0.286,0.521,0.618,0.83,0.959l-2.384,2.841
		c-0.246,0.29-0.22,0.736,0.057,0.993c0.125,0.118,0.279,0.175,0.435,0.177c0.188,0.002,0.373-0.08,0.508-0.237l2.329-2.777
		c0.283,0.282,0.567,0.548,0.841,0.771l-1.465,1.102c-0.282,0.215-0.388,0.624-0.215,0.939c0.124,0.23,0.346,0.355,0.574,0.357
		c0.137,0.002,0.273-0.041,0.393-0.133l1.505-1.128c0.518-0.391,1.061-0.742,1.628-1.046
		C100.599,248.688,105.589,247.801,108.362,247.654z"/>
	
		<linearGradient id="SVGID_11_" gradientUnits="userSpaceOnUse" x1="915.5898" y1="-1331.2129" x2="961.5234" y2="-1331.2129" gradientTransform="matrix(0.3314 0.0032 0.0032 -0.3314 -242.9088 -174.8615)">
		<stop  offset="0" style="stop-color:#CD181F"/>
		<stop  offset="0.1746" style="stop-color:#C2171D"/>
		<stop  offset="0.4791" style="stop-color:#A61319"/>
		<stop  offset="0.875" style="stop-color:#770E12"/>
		<stop  offset="1" style="stop-color:#670C10"/>
	</linearGradient>
	<path fill="url(#SVGID_11_)" d="M70.967,264.717c0.917,2.472,0.667,5.326-0.808,7.635l-0.046,0.07
		c-0.908,1.422-2.587,2.008-4.082,1.426c-0.017-0.012-0.034-0.012-0.048-0.02l-0.171-0.654c-0.429-1.648-1.598-2.998-3.146-3.5
		c-1.613-0.528-3.33-0.117-4.564,1.096l-1.87,1.822c0.398-2.813,2.637-5.007,5.36-5.179c2.426-0.154,4.702,1.322,5.661,3.669
		c0.146,0.357,0.539,0.523,0.878,0.367c0.339-0.152,0.494-0.566,0.35-0.924c-0.418-1.021-1.041-1.911-1.8-2.624
		C67.786,267.284,69.597,266.153,70.967,264.717z"/>
	
		<linearGradient id="SVGID_12_" gradientUnits="userSpaceOnUse" x1="863.417" y1="-1302.1963" x2="957.8643" y2="-1302.1963" gradientTransform="matrix(0.3314 0.0032 0.0032 -0.3314 -242.9088 -174.8615)">
		<stop  offset="0" style="stop-color:#06AAC1"/>
		<stop  offset="0.2586" style="stop-color:#058293"/>
		<stop  offset="0.8425" style="stop-color:#011C20"/>
		<stop  offset="1" style="stop-color:#000000"/>
	</linearGradient>
	<path fill="url(#SVGID_12_)" d="M69.499,262.207c0.317,0.369,0.592,0.764,0.834,1.176c-1.52,1.764-4.011,3.149-4.873,3.595
		c-1.173-0.703-2.539-1.059-3.947-0.969c-2.575,0.16-4.798,1.789-5.914,4.108c-2.87-0.203-5.454-2.063-6.66-4.834
		c-1.973-4.539-5.197-10.812-9.772-16.269c5.68,2.231,9.697,5.031,13.295,7.539c0.655,0.457,1.273,0.887,1.896,1.312
		c0.165,0.111,0.356,0.248,0.569,0.4c2.343,1.678,7.724,5.523,12.5,1.511L69.499,262.207z"/>
	<path d="M111.698,246.977c0.032,0.299-0.115,0.586-0.372,0.719l-11.812,6.083c-5.558,2.863-9.681,7.245-12.356,11.891
		c-1.342,2.336-2.515,4.222-3.69,5.937l-0.221,0.322c-3.897,5.697-9.766,9.203-15.699,9.371c-0.812,0.02-1.564,0.031-2.258,0.025
		c-2.998-0.029-4.937-0.346-6.289-0.996c-0.602-0.287-1.151-0.656-1.64-1.096c-1.453-0.152-4.994-0.438-5.031-0.441
		c-0.309-0.021-0.572-0.271-0.614-0.617c-0.024-0.201,0.048-0.406,0.174-0.563l2.959-3.617c-0.024-0.363-0.023-0.73,0.004-1.098
		c0.037-0.482,0.119-0.959,0.239-1.414c-3.187-0.379-6.017-2.505-7.367-5.612c-2.184-5.023-5.93-12.216-11.363-17.943
		c-0.218-0.229-0.257-0.587-0.098-0.862c0.159-0.279,0.479-0.406,0.773-0.307c7.238,2.4,11.978,5.703,16.161,8.622
		c0.652,0.452,1.268,0.882,1.885,1.303c0.172,0.114,0.371,0.259,0.593,0.418c2.256,1.61,6.849,4.894,10.857,1.625l-0.656-0.771
		c-1.655-1.944-2.489-4.452-2.349-7.063c0.142-2.609,1.242-5,3.095-6.734c3.923-3.669,9.36-9.547,12.98-16.708
		c0.167-0.331,0.558-0.474,0.891-0.296c0.233,0.125,0.368,0.391,0.366,0.666c-0.09,8.975-1.394,15.51-2.721,21.438
		c-0.541,2.412-0.15,3.913,0.721,5.411c5.776-5.273,7.893-13.052,10.554-22.854c0.241-0.887,0.484-1.788,0.738-2.708
		c0.09-0.327,0.388-0.538,0.709-0.505c0.319,0.033,0.571,0.303,0.597,0.642c0.652,8.225-1.697,16.943-2.251,18.86
		c0.926,1.16,2.381,2.803,3.243,3.365c11.898-6.539,18.45-5.157,18.724-5.096C111.454,246.438,111.664,246.679,111.698,246.977z
		 M98.93,252.512l9.432-4.857c-2.773,0.146-7.763,1.033-14.685,4.732c-0.567,0.304-1.111,0.655-1.628,1.046l-1.505,1.128
		c-0.12,0.092-0.256,0.135-0.393,0.133c-0.228-0.002-0.45-0.127-0.574-0.357c-0.173-0.315-0.066-0.725,0.215-0.939l1.465-1.102
		c-0.274-0.223-0.558-0.488-0.841-0.771l-2.329,2.777c-0.135,0.157-0.32,0.239-0.508,0.237c-0.156-0.002-0.31-0.059-0.435-0.177
		c-0.276-0.257-0.303-0.703-0.057-0.993l2.384-2.841c-0.308-0.341-0.593-0.673-0.83-0.959l-0.784,1.87
		c-0.11,0.264-0.359,0.422-0.619,0.42c-0.097-0.002-0.195-0.025-0.29-0.074c-0.325-0.17-0.446-0.598-0.298-0.947l0.855-2.039
		c0.243-0.584,0.451-1.184,0.614-1.797c0.575-2.15,1.824-7.359,2.071-12.943c-2.521,9.221-4.793,16.576-10.572,21.779
		c0.192,0.279,0.397,0.561,0.611,0.858c0.411,0.569,0.835,1.155,1.268,1.82c3.154,4.829,1.991,11.497-2.596,14.86
		c-0.305,0.225-0.719,0.146-0.929-0.174c-0.211-0.32-0.135-0.758,0.166-0.98c3.985-2.926,4.999-8.713,2.259-12.907
		c-0.416-0.634-0.83-1.211-1.23-1.763c-1.744-2.419-3.249-4.508-2.328-8.618c1.17-5.226,2.322-10.931,2.615-18.384
		c-2.11,3.633-4.609,6.878-7.031,9.616c0.36,2.062,0.24,4.978-2.056,7.794c-0.77,0.947-1.212,2.135-1.245,3.344
		c-0.033,1.341,0.512,2.9,3.835,8.598c2.021,3.463,1.899,6.897-0.346,9.941c-0.245,1.152-0.691,2.27-1.35,3.295l-0.044,0.07
		c-1.257,1.959-3.579,2.762-5.654,1.959c-0.274-0.107-0.44-0.201-0.458-0.209c-0.163-0.09-0.283-0.248-0.331-0.438l-0.28-1.072
		c-0.312-1.195-1.174-2.115-2.304-2.455c-1.046-0.316-2.145-0.08-2.986,0.625c-0.088,0.07-0.168,0.146-0.251,0.227
		c-0.39,0.396-0.608,0.945-0.635,1.514c-0.001,0.047-0.002,0.094-0.002,0.131c-0.011,1.139,0.859,2.072,1.936,2.082
		c0.721,0.008,1.339-0.555,1.434-1.305c0.053-0.416-0.132-0.83-0.482-1.082c-0.441-0.316-0.812-0.186-1.008,0.043
		c-0.254,0.289-0.683,0.303-0.953,0.029c-0.281-0.283-0.24-0.771,0.039-1.059c0.098-0.104,0.201-0.191,0.313-0.266
		c0.692-0.477,1.603-0.461,2.359,0.086c0.772,0.553,1.177,1.484,1.056,2.43c-0.186,1.455-1.377,2.545-2.771,2.529
		c-1.722-0.016-3.125-1.434-3.248-3.215l-0.748,0.73c0.313,1.975,1.535,3.705,3.307,4.553c1.449,0.699,3.903,0.959,7.96,0.842
		c5.519-0.152,10.997-3.439,14.652-8.785l0.22-0.322c1.152-1.685,2.308-3.54,3.631-5.84C89.11,259.57,93.575,255.272,98.93,252.512z
		 M72.78,266.614c0.572-1.899,0.252-3.897-0.958-5.974c-3.523-6.039-4.074-7.711-4.032-9.371c0.041-1.535,0.597-3.035,1.568-4.227
		c1.587-1.945,1.953-3.941,1.872-5.563c-1.315,1.412-2.581,2.664-3.721,3.73c-1.585,1.484-2.525,3.529-2.646,5.761
		s0.592,4.378,2.007,6.043l3.623,4.25C71.801,262.803,72.569,264.676,72.78,266.614z M70.159,272.352
		c1.475-2.309,1.725-5.163,0.808-7.635c-1.37,1.437-3.182,2.567-4.286,3.185c0.759,0.713,1.382,1.603,1.8,2.624
		c0.145,0.357-0.011,0.771-0.35,0.924c-0.339,0.156-0.731-0.01-0.878-0.367c-0.959-2.347-3.235-3.823-5.661-3.669
		c-2.724,0.172-4.962,2.366-5.36,5.179l1.87-1.822c1.234-1.213,2.951-1.624,4.564-1.096c1.547,0.502,2.717,1.852,3.146,3.5
		l0.171,0.654c0.015,0.008,0.032,0.008,0.048,0.02c1.495,0.582,3.174-0.004,4.082-1.426L70.159,272.352z M70.333,263.383
		c-0.242-0.412-0.518-0.807-0.834-1.176l-2.07-2.431c-4.776,4.013-10.158,0.167-12.5-1.511c-0.213-0.152-0.405-0.289-0.569-0.4
		c-0.623-0.425-1.241-0.854-1.896-1.312c-3.598-2.508-7.615-5.308-13.295-7.539c4.575,5.457,7.8,11.729,9.772,16.269
		c1.206,2.771,3.79,4.631,6.66,4.834c1.116-2.319,3.339-3.948,5.914-4.11c1.408-0.088,2.774,0.268,3.947,0.971
		C66.323,266.532,68.814,265.146,70.333,263.383z M56.056,277.695c-0.383-0.598-0.681-1.246-0.889-1.938l-1.419,1.738
		C54.431,277.553,55.283,277.623,56.056,277.695z"/>
</g>
</svg>
